<mxfile modified="2022-08-02T13:07:03.129Z" host="app.diagrams.net" agent="5.0 (Macintosh; Intel Mac OS X 10_15_7) AppleWebKit/537.36 (KHTML, like Gecko) Chrome/103.0.0.0 Safari/537.36" etag="WT9C5-T8dCs9JheR_Eko" version="20.2.2" type="github">
  <diagram id="Ht1M8jgEwFfnCIfOTk4-" name="Page-1">
    <mxGraphModel dx="3192" dy="1535" grid="1" gridSize="10" guides="1" tooltips="1" connect="1" arrows="1" fold="1" page="1" pageScale="1" pageWidth="827" pageHeight="1169" background="#114B5F" math="0" shadow="0">
      <root>
        <mxCell id="0" />
        <mxCell id="1" parent="0" />
        <mxCell id="lsA1_hPVy3MdG8bXp4tH-7" value="Orgchart" style="swimlane;startSize=20;horizontal=1;containerType=tree;newEdgeStyle={&quot;edgeStyle&quot;:&quot;elbowEdgeStyle&quot;,&quot;startArrow&quot;:&quot;none&quot;,&quot;endArrow&quot;:&quot;none&quot;};shadow=1;sketch=0;fontSize=16;" parent="1" vertex="1">
          <mxGeometry x="-470" y="160" width="1450" height="1000" as="geometry" />
        </mxCell>
        <mxCell id="lsA1_hPVy3MdG8bXp4tH-8" value="" style="edgeStyle=elbowEdgeStyle;elbow=vertical;startArrow=none;endArrow=none;rounded=0;strokeColor=#FF0F0F;strokeWidth=3;" parent="lsA1_hPVy3MdG8bXp4tH-7" source="lsA1_hPVy3MdG8bXp4tH-10" target="lsA1_hPVy3MdG8bXp4tH-11" edge="1">
          <mxGeometry relative="1" as="geometry" />
        </mxCell>
        <mxCell id="lsA1_hPVy3MdG8bXp4tH-9" value="" style="edgeStyle=elbowEdgeStyle;elbow=vertical;startArrow=none;endArrow=none;rounded=0;strokeWidth=3;strokeColor=#FF003C;" parent="lsA1_hPVy3MdG8bXp4tH-7" source="lsA1_hPVy3MdG8bXp4tH-10" target="lsA1_hPVy3MdG8bXp4tH-12" edge="1">
          <mxGeometry relative="1" as="geometry" />
        </mxCell>
        <UserObject label="&lt;h1&gt;&lt;span style=&quot;box-sizing: border-box; font-weight: bolder; color: rgb(62, 63, 58); font-family: Roboto, -apple-system, &amp;quot;system-ui&amp;quot;, &amp;quot;Segoe UI&amp;quot;, Roboto, &amp;quot;Helvetica Neue&amp;quot;, Arial, sans-serif, &amp;quot;Apple Color Emoji&amp;quot;, &amp;quot;Segoe UI Emoji&amp;quot;, &amp;quot;Segoe UI Symbol&amp;quot;; background-color: rgba(0, 0, 0, 0.075);&quot;&gt;&lt;font style=&quot;font-size: 24px;&quot;&gt;Davis systems&lt;/font&gt;&lt;/span&gt;&lt;/h1&gt;" treeRoot="1" id="lsA1_hPVy3MdG8bXp4tH-10">
          <mxCell style="whiteSpace=wrap;html=1;align=center;treeFolding=1;treeMoving=1;newEdgeStyle={&quot;edgeStyle&quot;:&quot;elbowEdgeStyle&quot;,&quot;startArrow&quot;:&quot;none&quot;,&quot;endArrow&quot;:&quot;none&quot;};shadow=1;sketch=0;" parent="lsA1_hPVy3MdG8bXp4tH-7" vertex="1">
            <mxGeometry x="80" y="40" width="620" height="90" as="geometry" />
          </mxCell>
        </UserObject>
        <mxCell id="lsA1_hPVy3MdG8bXp4tH-11" value="&lt;font style=&quot;font-size: 21px;&quot;&gt;IT&lt;/font&gt;" style="whiteSpace=wrap;html=1;align=center;verticalAlign=middle;treeFolding=1;treeMoving=1;newEdgeStyle={&quot;edgeStyle&quot;:&quot;elbowEdgeStyle&quot;,&quot;startArrow&quot;:&quot;none&quot;,&quot;endArrow&quot;:&quot;none&quot;};shadow=1;sketch=0;" parent="lsA1_hPVy3MdG8bXp4tH-7" vertex="1">
          <mxGeometry x="80" y="240" width="100" height="135" as="geometry" />
        </mxCell>
        <mxCell id="lsA1_hPVy3MdG8bXp4tH-12" value="&lt;font style=&quot;font-size: 21px;&quot;&gt;HR&lt;/font&gt;" style="whiteSpace=wrap;html=1;align=center;verticalAlign=middle;treeFolding=1;treeMoving=1;newEdgeStyle={&quot;edgeStyle&quot;:&quot;elbowEdgeStyle&quot;,&quot;startArrow&quot;:&quot;none&quot;,&quot;endArrow&quot;:&quot;none&quot;};shadow=1;sketch=0;" parent="lsA1_hPVy3MdG8bXp4tH-7" vertex="1">
          <mxGeometry x="530" y="240" width="100" height="135" as="geometry" />
        </mxCell>
        <mxCell id="lsA1_hPVy3MdG8bXp4tH-13" value="&lt;font style=&quot;font-size: 21px;&quot;&gt;Finance&lt;/font&gt;" style="whiteSpace=wrap;html=1;align=center;verticalAlign=middle;treeFolding=1;treeMoving=1;newEdgeStyle={&quot;edgeStyle&quot;:&quot;elbowEdgeStyle&quot;,&quot;startArrow&quot;:&quot;none&quot;,&quot;endArrow&quot;:&quot;none&quot;};shadow=1;sketch=0;" parent="lsA1_hPVy3MdG8bXp4tH-7" vertex="1">
          <mxGeometry x="300" y="240" width="100" height="135" as="geometry" />
        </mxCell>
        <mxCell id="lsA1_hPVy3MdG8bXp4tH-14" value="" style="edgeStyle=elbowEdgeStyle;elbow=vertical;startArrow=none;endArrow=none;rounded=0;strokeColor=#FF141C;strokeWidth=3;" parent="lsA1_hPVy3MdG8bXp4tH-7" source="lsA1_hPVy3MdG8bXp4tH-10" target="lsA1_hPVy3MdG8bXp4tH-13" edge="1">
          <mxGeometry relative="1" as="geometry">
            <mxPoint x="290.0000000000002" y="130" as="sourcePoint" />
            <mxPoint x="130.00000000000023" y="155" as="targetPoint" />
          </mxGeometry>
        </mxCell>
        <mxCell id="tiNcRC6KbzaWaGkmOmNG-9" value="" style="group" vertex="1" connectable="0" parent="lsA1_hPVy3MdG8bXp4tH-7">
          <mxGeometry x="30" y="530" width="250" height="180" as="geometry" />
        </mxCell>
        <mxCell id="tiNcRC6KbzaWaGkmOmNG-2" value="" style="ellipse;shape=doubleEllipse;whiteSpace=wrap;html=1;aspect=fixed;shadow=1;sketch=0;fontSize=21;fontColor=#E6FFCC;" vertex="1" parent="tiNcRC6KbzaWaGkmOmNG-9">
          <mxGeometry width="180" height="180" as="geometry" />
        </mxCell>
        <mxCell id="lsA1_hPVy3MdG8bXp4tH-24" value="" style="group" parent="tiNcRC6KbzaWaGkmOmNG-9" vertex="1" connectable="0">
          <mxGeometry x="46.15384615384616" y="34.61538461538462" width="157.6923076923077" height="107.30769230769232" as="geometry" />
        </mxCell>
        <mxCell id="lsA1_hPVy3MdG8bXp4tH-15" value="" style="aspect=fixed;html=1;points=[];align=center;image;fontSize=12;image=img/lib/azure2/identity/Users.svg;" parent="lsA1_hPVy3MdG8bXp4tH-24" vertex="1">
          <mxGeometry y="58.846153846153854" width="44.307692307692314" height="48.46153846153847" as="geometry" />
        </mxCell>
        <mxCell id="lsA1_hPVy3MdG8bXp4tH-16" value="" style="aspect=fixed;html=1;points=[];align=center;image;fontSize=12;image=img/lib/azure2/identity/Users.svg;" parent="lsA1_hPVy3MdG8bXp4tH-24" vertex="1">
          <mxGeometry x="27.84769230769232" width="44.307692307692314" height="48.46153846153847" as="geometry" />
        </mxCell>
        <mxCell id="lsA1_hPVy3MdG8bXp4tH-17" value="" style="aspect=fixed;html=1;points=[];align=center;image;fontSize=12;image=img/lib/azure2/identity/Users.svg;" parent="tiNcRC6KbzaWaGkmOmNG-9" vertex="1">
          <mxGeometry x="109.99769230769235" y="93.4615384615385" width="44.307692307692314" height="48.46153846153847" as="geometry" />
        </mxCell>
        <mxCell id="tiNcRC6KbzaWaGkmOmNG-16" value="" style="group" vertex="1" connectable="0" parent="lsA1_hPVy3MdG8bXp4tH-7">
          <mxGeometry x="260" y="530" width="220" height="180" as="geometry" />
        </mxCell>
        <mxCell id="tiNcRC6KbzaWaGkmOmNG-17" value="" style="ellipse;shape=doubleEllipse;whiteSpace=wrap;html=1;aspect=fixed;shadow=1;sketch=0;fontSize=21;fontColor=#E6FFCC;" vertex="1" parent="tiNcRC6KbzaWaGkmOmNG-16">
          <mxGeometry width="180" height="180" as="geometry" />
        </mxCell>
        <mxCell id="tiNcRC6KbzaWaGkmOmNG-18" value="" style="group" vertex="1" connectable="0" parent="tiNcRC6KbzaWaGkmOmNG-16">
          <mxGeometry x="40.61538461538461" y="34.61538461538461" width="138.76923076923077" height="107.3076923076923" as="geometry" />
        </mxCell>
        <mxCell id="tiNcRC6KbzaWaGkmOmNG-19" value="" style="aspect=fixed;html=1;points=[];align=center;image;fontSize=12;image=img/lib/azure2/identity/Users.svg;" vertex="1" parent="tiNcRC6KbzaWaGkmOmNG-18">
          <mxGeometry y="58.84615384615385" width="44.30769230769231" height="48.46153846153846" as="geometry" />
        </mxCell>
        <mxCell id="tiNcRC6KbzaWaGkmOmNG-20" value="" style="aspect=fixed;html=1;points=[];align=center;image;fontSize=12;image=img/lib/azure2/identity/Users.svg;" vertex="1" parent="tiNcRC6KbzaWaGkmOmNG-18">
          <mxGeometry x="25.080769230769235" width="44.30769230769231" height="48.46153846153846" as="geometry" />
        </mxCell>
        <mxCell id="tiNcRC6KbzaWaGkmOmNG-21" value="" style="aspect=fixed;html=1;points=[];align=center;image;fontSize=12;image=img/lib/azure2/identity/Users.svg;" vertex="1" parent="tiNcRC6KbzaWaGkmOmNG-16">
          <mxGeometry x="100.00076923076922" y="93.46153846153848" width="44.30769230769231" height="48.46153846153846" as="geometry" />
        </mxCell>
        <mxCell id="tiNcRC6KbzaWaGkmOmNG-10" value="" style="group" vertex="1" connectable="0" parent="lsA1_hPVy3MdG8bXp4tH-7">
          <mxGeometry x="490" y="530" width="190" height="180" as="geometry" />
        </mxCell>
        <mxCell id="tiNcRC6KbzaWaGkmOmNG-11" value="" style="ellipse;shape=doubleEllipse;whiteSpace=wrap;html=1;aspect=fixed;shadow=1;sketch=0;fontSize=21;fontColor=#E6FFCC;" vertex="1" parent="tiNcRC6KbzaWaGkmOmNG-10">
          <mxGeometry width="180" height="180" as="geometry" />
        </mxCell>
        <mxCell id="tiNcRC6KbzaWaGkmOmNG-12" value="" style="group" vertex="1" connectable="0" parent="tiNcRC6KbzaWaGkmOmNG-10">
          <mxGeometry x="35.07692307692307" y="34.61538461538461" width="119.84615384615384" height="107.3076923076923" as="geometry" />
        </mxCell>
        <mxCell id="tiNcRC6KbzaWaGkmOmNG-13" value="" style="aspect=fixed;html=1;points=[];align=center;image;fontSize=12;image=img/lib/azure2/identity/Users.svg;" vertex="1" parent="tiNcRC6KbzaWaGkmOmNG-12">
          <mxGeometry y="58.84615384615385" width="44.30769230769231" height="48.46153846153846" as="geometry" />
        </mxCell>
        <mxCell id="tiNcRC6KbzaWaGkmOmNG-14" value="" style="aspect=fixed;html=1;points=[];align=center;image;fontSize=12;image=img/lib/azure2/identity/Users.svg;" vertex="1" parent="tiNcRC6KbzaWaGkmOmNG-12">
          <mxGeometry x="32.15384615384615" width="44.30769230769231" height="48.46153846153846" as="geometry" />
        </mxCell>
        <mxCell id="tiNcRC6KbzaWaGkmOmNG-15" value="" style="aspect=fixed;html=1;points=[];align=center;image;fontSize=12;image=img/lib/azure2/identity/Users.svg;" vertex="1" parent="tiNcRC6KbzaWaGkmOmNG-12">
          <mxGeometry x="73.07692307692307" y="58.84615384615385" width="44.30769230769231" height="48.46153846153846" as="geometry" />
        </mxCell>
        <mxCell id="tiNcRC6KbzaWaGkmOmNG-33" value="" style="endArrow=none;html=1;rounded=0;fontSize=21;fontColor=#E6FFCC;strokeColor=#7AFFED;exitX=0.36;exitY=1.009;exitDx=0;exitDy=0;exitPerimeter=0;entryX=0.5;entryY=0;entryDx=0;entryDy=0;" edge="1" parent="lsA1_hPVy3MdG8bXp4tH-7" source="lsA1_hPVy3MdG8bXp4tH-11" target="tiNcRC6KbzaWaGkmOmNG-2">
          <mxGeometry width="50" height="50" relative="1" as="geometry">
            <mxPoint x="760" y="435" as="sourcePoint" />
            <mxPoint x="810" y="385" as="targetPoint" />
          </mxGeometry>
        </mxCell>
        <mxCell id="tiNcRC6KbzaWaGkmOmNG-34" value="" style="endArrow=none;html=1;rounded=0;fontSize=21;fontColor=#E6FFCC;strokeColor=#7AFFED;exitX=0.5;exitY=1;exitDx=0;exitDy=0;entryX=0.5;entryY=0;entryDx=0;entryDy=0;" edge="1" parent="lsA1_hPVy3MdG8bXp4tH-7" source="lsA1_hPVy3MdG8bXp4tH-13" target="tiNcRC6KbzaWaGkmOmNG-17">
          <mxGeometry width="50" height="50" relative="1" as="geometry">
            <mxPoint x="760" y="435" as="sourcePoint" />
            <mxPoint x="810" y="385" as="targetPoint" />
          </mxGeometry>
        </mxCell>
        <mxCell id="tiNcRC6KbzaWaGkmOmNG-35" value="" style="endArrow=none;html=1;rounded=0;fontSize=21;fontColor=#E6FFCC;strokeColor=#7AFFED;exitX=0.5;exitY=1;exitDx=0;exitDy=0;entryX=0.5;entryY=0;entryDx=0;entryDy=0;" edge="1" parent="lsA1_hPVy3MdG8bXp4tH-7" source="lsA1_hPVy3MdG8bXp4tH-12" target="tiNcRC6KbzaWaGkmOmNG-11">
          <mxGeometry width="50" height="50" relative="1" as="geometry">
            <mxPoint x="760" y="435" as="sourcePoint" />
            <mxPoint x="810" y="385" as="targetPoint" />
          </mxGeometry>
        </mxCell>
      </root>
    </mxGraphModel>
  </diagram>
</mxfile>
